<?xml version="1.0" encoding="UTF-8"?>
<svg id="Layer_2" data-name="Layer 2" xmlns="http://www.w3.org/2000/svg" viewBox="0 0 18.57 19.88">
  <defs>
    <style>
      .cls-1 {
        fill: #fff;
      }

      .cls-2 {
        fill: #e14748;
      }
    </style>
  </defs>
  <circle id="Icon_Button" data-name="Icon Button" class="cls-2" cx="9.29" cy="10.37" r="9.29"/>
  <rect id="I_base" data-name="I base" class="cls-1" x="4.76" y="3.87" width="9.18" height="12.55" rx=".35" ry=".35"/>
  <path id="Dot" class="cls-2" d="m6.07,4.71h6.62c.17,0,.32.14.32.32v1.74h-7.25v-1.74c0-.17.14-.32.32-.32Z"/>
  <rect id="Dot-2" data-name="Dot" class="cls-2" x="3.38" y="7.64" width="11.69" height=".34"/>
  <rect id="Dot-3" data-name="Dot" class="cls-2" x="11.45" y="9.16" width="1.52" height="1.12" rx=".06" ry=".06"/>
  <rect id="Dot-4" data-name="Dot" class="cls-2" x="11.58" y="11.22" width="1.39" height="4.14" rx=".06" ry=".06"/>
  <rect id="Dot-5" data-name="Dot" class="cls-2" x="8.67" y="9.16" width="1.52" height="1.12" rx=".06" ry=".06"/>
  <rect id="Dot-6" data-name="Dot" class="cls-2" x="6" y="9.16" width="1.52" height="1.12" rx=".06" ry=".06"/>
  <rect id="Dot-7" data-name="Dot" class="cls-2" x="8.67" y="11.72" width="1.52" height="1.12" rx=".06" ry=".06"/>
  <rect id="Dot-8" data-name="Dot" class="cls-2" x="6" y="11.72" width="1.52" height="1.12" rx=".06" ry=".06"/>
  <rect id="Dot-9" data-name="Dot" class="cls-2" x="8.67" y="14.16" width="1.52" height="1.12" rx=".06" ry=".06"/>
  <rect id="Dot-10" data-name="Dot" class="cls-2" x="6" y="14.16" width="1.52" height="1.12" rx=".06" ry=".06"/>
</svg>