<svg id="Ground_station_-_individual" data-name="Ground station - individual" xmlns="http://www.w3.org/2000/svg" viewBox="0 0 35.6 44.14">
  <defs>
    <style>
      .cls-1 {
        fill: #e34747;
      }
    </style>
  </defs>
  <path class="cls-1" d="M106.05,118.81l8.84,10.85c.36.44,0,1-.7,1H94.12c-.67,0-1.06-.61-.68-1l9.73-10.88A2,2,0,0,1,106.05,118.81Z" transform="translate(-91.41 -89.56)"/>
  <path class="cls-1" d="M114.92,103.09l11.88,13.39a.85.85,0,0,1-.09,1.23A15.91,15.91,0,0,1,115,120.89c-9.68-1.07-17.69-10-17.75-19.77a16,16,0,0,1,4.37-11.31.84.84,0,0,1,1.23,0Z" transform="translate(-91.41 -89.56)"/>
  <circle class="cls-1" cx="29.12" cy="8.82" r="2.77"/>
  <polygon class="cls-1" points="29.4 8.27 14.17 11.36 24.46 23 29.4 8.27"/>
  <rect class="cls-1" y="42.15" width="26.26" height="1.99" rx="0.93"/>
</svg>
