<svg id="Question_mark" data-name="Question mark" xmlns="http://www.w3.org/2000/svg" viewBox="0 0 13.3 20.48">
  <defs>
    <style>
      .cls-1 {
        fill: #e34747;
      }
    </style>
  </defs>
  <rect class="cls-1" x="100.16" y="110.17" width="3.84" height="3.75" rx="0.71" transform="translate(-93.49 -95.35) rotate(1.07)"/>
  <path class="cls-1" d="M100.65,108.25v-.35c0-1.53.41-2.83,3-5,2-1.59,2.54-2.37,2.57-3.87,0-1.8-1.2-3.45-4-3.45a4,4,0,0,0-4.16,3,1,1,0,0,1-1,.68h-.52a1,1,0,0,1-1-1.31c.6-2,2.29-4.51,6.72-4.51,4.62,0,6.53,2.9,6.53,5.53,0,2.37-.82,3.56-3.28,5.52-1.74,1.34-2.26,2.29-2.26,3.56v.18Z" transform="translate(-95.6 -93.46)"/>
</svg>
