<svg id="Reporting_Icon_-_unselected" data-name="Reporting Icon - unselected" xmlns="http://www.w3.org/2000/svg" viewBox="0 0 46.77 51.26">
  <defs>
    <style>
      .cls-1 {
        fill: #2d2d2d;
      }

      .cls-1, .cls-2, .cls-4 {
        stroke: #e14748;
        stroke-miterlimit: 10;
      }

      .cls-2, .cls-4 {
        fill: none;
      }

      .cls-3 {
        fill: #e14748;
        opacity: 0.93;
      }

      .cls-4 {
        stroke-linecap: round;
        stroke-width: 2px;
      }
    </style>
  </defs>
  <rect id="Icon_Button" data-name="Icon Button" class="cls-1" x="0.5" y="0.5" width="45.77" height="50.26" rx="5.88"/>
  <path id="Paper" class="cls-2" d="M150.63,162.82h15.79a1.31,1.31,0,0,1,.93.39l7.55,7.54a1.34,1.34,0,0,1,.38.93v21.91a.65.65,0,0,1-.65.65h-24a.65.65,0,0,1-.64-.65l0-30.12A.65.65,0,0,1,150.63,162.82Z" transform="translate(-138.51 -153.83)"/>
  <path id="Paper_fold" data-name="Paper fold" class="cls-3" d="M165.06,165.85v7a.54.54,0,0,0,.54.53h6.81a.53.53,0,0,0,.53-.53v-.57a.53.53,0,0,0-.16-.38l-6.42-6.43a.57.57,0,0,0-.37-.16h-.39A.54.54,0,0,0,165.06,165.85Z" transform="translate(-138.51 -153.83)"/>
  <line id="Writing_1" data-name="Writing 1" class="cls-4" x1="15.39" y1="31.53" x2="31.52" y2="31.53"/>
  <g id="Pencil_Shapes" data-name="Pencil Shapes">
    <path class="cls-1" d="M164.31,191.77l.83-3.68,8.69-8.68a.38.38,0,0,1,.55,0l2.46,2.56a.38.38,0,0,1,0,.54l-8.72,8.72Z" transform="translate(-138.51 -153.83)"/>
    <path class="cls-1" d="M174.35,179.19l2.94,2.94a.36.36,0,0,0,.51,0l1.39-1.39a.36.36,0,0,0,0-.51l-2.89-2.89a.37.37,0,0,0-.51,0l-1.43,1.35A.35.35,0,0,0,174.35,179.19Z" transform="translate(-138.51 -153.83)"/>
  </g>
  <line id="Writing_1-2" data-name="Writing 1" class="cls-4" x1="15.39" y1="24.31" x2="31.52" y2="24.31"/>
</svg>
