<svg id="CodeViewer_-_selected" data-name="CodeViewer - selected" xmlns="http://www.w3.org/2000/svg" viewBox="0 0 491.000000 536.000000">
  <g transform="translate(0.000000,536.000000) scale(0.100000,-0.100000)" fill="#e14748" stroke="none">
    <path d="M448 5311 c-26 -10 -51 -20 -55 -24 -3 -4 -13 -7 -20 -7 -44 0 -190 -123 -249 -210 -30 -43 -37 -58 -80 -160 -18 -43 -19 -111 -19 -2235 l0 -2190 23 -60 c45 -116 64 -145 157 -239 46 -46 92 -81 130 -99 33 -16 73 -35 88 -43 16 -8 43 -14 61 -14 18 0 41 -7 52 -15 16 -12 263 -14 1912 -15 1670 0 1895 2 1908 15 9 8 31 15 51 15 19 0 47 6 61 14 15 7 54 26 87 42 80 37 209 166 249 249 37 76 40 86 60 165 15 59 16 255 13 2195 -3 2181 -2 2146 -37 2240 -67 179 -213 316 -405 379 -46 15 -223 16 -1995 15 -1819 -1 -1948 -2 -1992 -18z m3810 -907 c99 -29 168 -83 206 -161 10 -21 23 -47 30 -58 8 -15 12 -361 16 -1266 l5 -1247 61 -45 c69 -50 101 -91 110 -136 4 -17 11 -34 15 -37 14 -8 10 -85 -7 -134 -24 -70 -84 -142 -144 -173 -42 -22 -65 -27 -120 -27 -38 0 -82 6 -97 12 -25 11 -310 212 -323 227 -3 4 -17 14 -32 24 -26 16 -133 17 -1702 17 l-1674 0 -49 25 c-59 32 -80 49 -118 100 -65 85 -60 -24 -60 1374 l0 1276 22 46 c41 86 120 153 218 184 32 10 409 13 1813 14 1617 1 1779 0 1830 -15z"/>
    <path d="M670 4285 c-58 -15 -134 -83 -160 -142 -18 -42 -20 -64 -18 -217 l3 -171 1935 0 1935 0 3 175 c2 159 1 179 -18 215 -40 80 -98 127 -178 144 -79 16 -3440 13 -3502 -4z m121 -168 c75 -64 54 -167 -41 -207 -25 -10 -36 -10 -67 5 -55 26 -72 52 -73 110 0 42 5 54 32 82 27 28 39 33 77 33 33 -1 54 -7 72 -23z m386 -9 c67 -71 52 -150 -38 -192 -33 -15 -38 -15 -74 0 -56 23 -74 50 -75 111 0 48 3 54 37 82 53 44 107 43 150 -1z m383 3 c32 -27 35 -33 34 -85 0 -64 -21 -94 -79 -115 -32 -11 -39 -10 -77 11 -53 29 -70 60 -65 116 10 94 114 134 187 73z"/>
    <path d="M1666 3373 c-16 -38 -32 -79 -38 -93 -6 -14 -16 -38 -23 -55 -7 -16 -18 -43 -25 -60 -7 -16 -18 -43 -25 -60 -7 -16 -20 -50 -30 -75 -10 -25 -28 -69 -41 -98 -13 -29 -24 -57 -24 -62 0 -6 -4 -18 -9 -28 -9 -19 -32 -71 -51 -117 -6 -16 -18 -43 -26 -58 -8 -16 -14 -35 -14 -43 0 -15 82 -58 130 -69 27 -6 30 -3 50 42 11 26 25 56 30 65 6 10 10 22 10 28 0 5 12 35 26 67 47 105 54 124 54 138 0 8 5 15 10 15 6 0 10 7 10 15 0 8 7 31 16 52 9 21 21 49 27 63 5 14 15 39 22 55 7 17 18 44 25 60 6 17 18 43 26 58 8 16 14 34 14 41 0 7 11 35 26 61 25 49 26 75 1 75 -13 0 -59 19 -99 41 -34 18 -45 8 -72 -58z"/>
    <path d="M1105 3235 c-16 -13 -33 -24 -36 -25 -4 0 -35 -19 -71 -42 -35 -24 -99 -65 -141 -92 l-77 -50 0 -71 c0 -79 8 -92 83 -130 20 -11 37 -23 37 -27 0 -5 6 -8 13 -8 7 0 28 -11 47 -23 58 -39 148 -87 164 -87 8 0 32 30 53 68 48 84 47 82 33 82 -7 0 -26 10 -43 23 -40 28 -107 66 -129 74 -40 13 -8 59 62 90 8 4 17 10 20 13 3 4 29 22 58 40 28 17 52 35 52 39 0 5 -13 27 -30 49 -16 23 -30 45 -30 49 0 5 -8 18 -18 30 l-17 23 -30 -25z"/>
    <path d="M2062 3248 c-7 -7 -12 -16 -12 -22 0 -5 -12 -24 -26 -43 -36 -48 -36 -81 1 -102 156 -89 194 -129 143 -151 -24 -10 -59 -31 -68 -40 -3 -3 -23 -15 -45 -27 -58 -32 -63 -44 -32 -85 15 -19 27 -39 27 -44 1 -5 10 -20 21 -33 17 -21 23 -23 37 -13 9 7 24 15 32 19 8 4 42 24 76 45 34 21 66 38 73 38 6 0 11 3 11 8 0 4 17 16 38 27 90 47 92 49 92 128 0 40 -4 77 -8 82 -10 14 -101 75 -111 75 -5 0 -11 4 -13 8 -1 4 -46 34 -98 67 -52 33 -96 63 -98 67 -5 12 -26 10 -40 -4z"/>
    <path d="M3065 2900 c-77 -13 -107 -21 -142 -36 -17 -8 -36 -14 -42 -14 -32 0 3 -35 121 -120 72 -52 136 -99 142 -105 6 -6 24 -20 41 -31 80 -51 145 -117 145 -147 0 -20 -22 -62 -40 -77 -3 -3 -40 -46 -83 -97 -87 -104 -123 -133 -162 -133 -18 0 -68 30 -154 92 -69 51 -128 95 -131 99 -8 9 -189 139 -195 139 -13 0 -4 -206 12 -254 50 -154 131 -263 229 -306 27 -11 58 -25 69 -30 17 -7 95 -19 145 -22 28 -1 135 13 155 22 11 4 40 16 65 26 25 10 52 23 60 30 50 39 56 38 138 -23 102 -76 109 -81 274 -202 78 -57 151 -112 162 -123 12 -11 37 -29 56 -41 19 -11 37 -24 40 -27 5 -6 253 -189 343 -252 47 -34 59 -37 115 -38 53 0 69 4 98 27 73 55 95 151 50 221 -23 35 -59 72 -72 72 -3 0 -38 25 -77 55 -40 30 -76 58 -82 63 -5 4 -53 38 -105 76 -52 38 -97 73 -100 76 -3 4 -23 19 -46 33 -22 14 -47 31 -55 39 -13 12 -247 185 -341 251 -21 15 -49 36 -60 47 -12 11 -30 22 -40 26 -27 8 -32 48 -14 122 9 37 16 87 16 111 0 42 -22 146 -39 186 -5 11 -12 27 -15 35 -18 45 -125 163 -171 188 -78 42 -206 60 -310 42z"/>
  </g>
</svg>
