<svg id="COdeViewer_-_unselected" data-name="CodeViewer - unselected" xmlns="http://www.w3.org/2000/svg" viewBox="0 0 492.000000 540.000000">
  <g transform="translate(0.000000,540.000000) scale(0.100000,-0.100000)" fill="#e14748" stroke="none">
    <path d="M550 5361 c-8 -5 -31 -12 -50 -16 -56 -12 -170 -70 -233 -120 -95 -75 -196 -230 -212 -325 -4 -22 -11 -42 -16 -46 -12 -7 -12 -4301 0 -4308 5 -3 12 -23 16 -43 10 -57 57 -151 108 -220 82 -111 199 -186 364 -237 47 -14 243 -16 1947 -16 1132 0 1897 4 1900 9 4 5 25 12 48 16 23 4 49 11 58 15 16 8 72 37 105 54 36 20 99 70 133 106 43 47 122 164 122 182 0 8 3 18 6 21 4 4 15 30 25 59 18 51 18 150 19 2208 0 2299 3 2160 -42 2270 -49 118 -166 256 -262 305 -14 8 -40 21 -58 31 -60 31 -67 34 -108 40 -22 4 -43 11 -46 15 -7 12 -3804 11 -3824 0z m3850 -97 c94 -33 173 -80 231 -135 40 -39 110 -132 126 -169 52 -122 48 85 48 -2267 0 -1708 -3 -2155 -12 -2165 -7 -6 -13 -19 -13 -27 0 -23 -43 -104 -81 -153 -80 -103 -168 -165 -299 -212 -41 -14 -226 -16 -1936 -16 -1889 0 -1890 0 -1949 21 -176 62 -295 175 -365 348 l-30 73 0 2139 c0 1547 3 2146 11 2166 82 207 177 309 357 384 l67 28 1900 0 c1720 1 1904 -1 1945 -15z"/>
    <path d="M610 4370 c-62 -24 -120 -77 -155 -141 l-30 -54 0 -1275 0 -1275 28 -50 c49 -86 74 -106 181 -149 34 -14 224 -16 1776 -16 l1738 0 29 -23 c53 -44 168 -122 196 -135 34 -14 123 -16 132 -2 3 5 14 10 23 10 20 0 70 44 95 82 12 20 17 48 17 103 0 83 -12 111 -64 155 -16 14 -40 34 -53 45 l-23 20 -3 1260 -2 1260 -23 40 c-33 60 -86 110 -148 139 l-55 26 -1807 -1 c-1706 -1 -1810 -2 -1852 -19z m221 -226 c25 -24 29 -35 29 -84 0 -59 -10 -76 -67 -107 -85 -48 -187 57 -148 151 33 77 126 97 186 40z m371 9 c68 -60 55 -154 -29 -200 -30 -17 -53 -16 -90 2 -38 19 -51 35 -63 74 -22 77 45 157 123 147 21 -2 48 -13 59 -23z m390 -12 c52 -58 49 -114 -8 -168 -40 -37 -73 -42 -121 -18 -43 22 -63 57 -63 110 0 48 9 64 59 98 39 27 98 17 133 -22z m2812 -387 c14 -6 16 -104 16 -1008 0 -552 -3 -1005 -6 -1009 -8 -8 -49 15 -87 49 -7 6 -79 59 -162 118 -82 60 -152 111 -155 115 -3 4 -54 42 -115 86 -60 43 -112 82 -115 85 -3 3 -18 14 -33 23 -27 18 -39 26 -95 73 -25 20 -25 21 -13 99 9 60 9 98 0 159 -7 45 -16 85 -21 91 -4 5 -8 17 -8 27 0 10 -11 36 -25 58 -14 22 -25 42 -25 45 0 8 -42 56 -90 101 -40 38 -114 82 -175 104 -30 11 -138 30 -170 30 -38 0 -146 -20 -167 -31 -10 -5 -24 -9 -32 -9 -23 0 -87 -41 -80 -52 7 -11 133 -106 333 -252 75 -54 139 -103 144 -110 17 -26 -3 -59 -162 -272 -25 -32 -49 -62 -55 -66 -17 -12 -53 -9 -68 5 -7 7 -78 60 -158 117 -80 58 -149 108 -155 113 -79 63 -131 97 -144 95 -20 -4 -29 -38 -30 -115 -2 -149 51 -282 153 -386 59 -59 170 -127 209 -127 8 0 19 -5 22 -10 11 -17 239 -12 298 6 29 9 56 21 61 25 6 5 16 9 24 9 7 0 20 7 28 15 27 27 22 29 215 -112 24 -18 49 -36 54 -41 6 -4 53 -39 105 -77 52 -38 104 -77 114 -87 11 -10 23 -18 26 -18 4 0 20 -11 36 -25 16 -14 44 -35 62 -46 81 -51 160 -49 -1628 -49 -1634 0 -1661 0 -1700 20 -51 26 -104 94 -119 152 -17 71 -16 2074 2 2081 18 8 3872 8 3891 1z"/>
    <path d="M1715 3438 c-3 -13 -11 -34 -17 -48 -26 -61 -38 -89 -73 -180 -10 -25 -28 -69 -41 -98 -13 -29 -24 -57 -24 -62 0 -6 -4 -18 -9 -28 -10 -20 -33 -73 -51 -117 -6 -16 -18 -43 -26 -58 -8 -16 -14 -33 -14 -38 0 -10 -41 -106 -61 -142 -11 -21 4 -47 27 -47 8 0 37 -11 65 -25 29 -13 55 -22 59 -20 4 3 18 31 30 62 12 32 29 74 37 93 8 19 19 45 24 58 5 12 13 32 18 45 23 53 39 95 56 137 19 48 30 77 50 125 7 17 18 42 24 58 6 15 15 37 20 50 76 178 82 207 44 207 -10 0 -40 11 -68 25 -62 30 -62 30 -70 3z"/>
    <path d="M2068 3231 c-16 -22 -28 -44 -28 -49 0 -5 -7 -15 -15 -22 -8 -7 -15 -18 -15 -24 0 -6 42 -37 94 -69 123 -75 128 -82 90 -112 -16 -14 -32 -24 -36 -25 -4 0 -32 -16 -62 -35 -30 -19 -60 -35 -66 -35 -5 0 -10 -2 -10 -5 0 -7 41 -79 54 -95 7 -8 16 -23 20 -34 5 -14 12 -17 33 -11 16 4 30 10 33 14 3 4 12 11 20 15 17 8 21 10 133 79 43 26 82 47 87 47 6 0 10 4 10 9 0 5 9 11 20 14 18 5 20 14 20 84 l0 78 -67 43 c-38 24 -77 48 -88 55 -11 7 -34 22 -52 34 -17 13 -34 23 -37 23 -4 0 -25 14 -48 30 -22 17 -46 30 -52 30 -6 0 -23 -18 -38 -39z"/>
    <path d="M1051 3194 c-51 -35 -97 -64 -102 -64 -5 0 -9 -4 -9 -10 0 -5 -4 -10 -10 -10 -5 0 -30 -14 -55 -32 l-46 -32 3 -75 3 -75 55 -38 c30 -20 58 -37 63 -37 4 -1 43 -23 87 -51 44 -27 83 -50 87 -50 3 0 14 -7 23 -15 16 -14 21 -10 59 56 46 80 49 94 24 102 -25 8 -97 50 -101 60 -2 4 -9 7 -15 7 -7 1 -25 11 -41 24 l-29 24 104 68 c57 37 108 71 112 75 7 6 -34 83 -54 99 -3 3 -8 13 -12 23 -11 30 -49 17 -146 -49z"/>
  </g>
</svg>
