<svg id="DataView_-_unselected" data-name="DataView - unselected" xmlns="http://www.w3.org/2000/svg" viewBox="0 0 491.000000 538.000000">
  <g transform="translate(0.000000,538.000000) scale(0.100000,-0.100000)" fill="#e14748" stroke="none">
    <path d="M518 5331 c-31 -9 -60 -19 -64 -23 -4 -5 -16 -8 -26 -8 -16 0 -48 -16 -110 -55 -47 -30 -108 -85 -146 -131 -47 -57 -106 -169 -117 -221 -3 -18 -11 -35 -16 -38 -12 -8 -12 -4322 0 -4329 5 -4 12 -24 16 -46 4 -22 11 -42 16 -46 5 -3 9 -12 9 -21 0 -21 84 -147 129 -192 75 -77 178 -135 308 -175 47 -14 243 -16 1938 -16 2004 0 1910 -2 2015 42 46 20 95 43 100 48 3 3 12 10 21 15 127 78 217 203 273 379 14 45 16 265 16 2173 0 2260 2 2147 -42 2253 -74 174 -216 312 -383 371 -118 41 -25 39 -2006 38 -1701 -1 -1879 -3 -1931 -18z m3865 -87 c29 -9 56 -21 62 -25 5 -5 15 -9 23 -9 7 0 42 -20 77 -45 57 -41 93 -76 149 -145 23 -29 76 -134 76 -152 0 -8 6 -20 13 -26 19 -20 18 -4263 -2 -4312 -37 -92 -57 -130 -96 -185 -46 -64 -59 -77 -133 -129 -50 -36 -132 -76 -154 -76 -8 0 -20 -6 -26 -13 -10 -9 -405 -12 -1905 -12 -1811 0 -1894 1 -1949 18 -32 11 -60 23 -64 28 -3 5 -12 9 -20 9 -13 0 -94 55 -146 99 -52 44 -148 194 -148 231 0 9 -6 22 -13 28 -9 10 -12 454 -12 2150 0 1975 1 2140 17 2182 70 189 189 310 364 373 l69 25 1883 1 c1722 1 1888 0 1935 -15z"/>
    <path d="M716 4425 c-57 -27 -122 -87 -141 -130 -33 -74 -35 -133 -35 -1228 0 -1164 0 -1151 48 -1229 26 -42 67 -80 117 -110 l40 -23 795 -3 795 -3 48 -49 c81 -83 296 -220 345 -220 7 0 20 -4 30 -9 47 -24 122 -34 272 -38 133 -4 177 -1 225 12 33 9 67 20 75 25 9 4 34 11 57 14 l40 7 81 -123 c45 -68 85 -128 90 -134 28 -31 37 -65 37 -129 0 -69 1 -72 50 -140 28 -39 86 -124 130 -190 43 -66 82 -122 85 -125 4 -3 23 -33 44 -67 60 -98 75 -108 160 -108 58 1 79 5 110 24 90 56 121 105 121 191 0 60 -3 69 -40 120 -53 71 -276 404 -293 435 -22 43 -75 75 -120 75 -36 0 -43 4 -63 38 -13 20 -27 42 -31 47 -27 33 -88 127 -88 135 0 6 -3 10 -7 10 -11 0 -43 58 -43 77 0 8 25 38 57 66 l56 52 176 6 c187 6 206 10 274 63 46 35 78 83 100 153 16 47 17 150 17 1160 -1 1024 -2 1112 -18 1158 -35 101 -84 157 -169 195 -45 20 -60 20 -1712 20 l-1666 -1 -49 -24z m184 -182 c62 -43 77 -102 41 -157 -72 -109 -243 -13 -187 106 29 61 97 85 146 51z m356 -4 c42 -26 54 -47 54 -96 -1 -74 -77 -126 -145 -97 -46 19 -65 50 -65 104 0 36 5 51 23 67 53 48 83 53 133 22z m367 -10 c33 -27 37 -35 37 -77 0 -34 -6 -55 -24 -76 -21 -27 -29 -30 -81 -30 -52 -1 -59 2 -81 29 -43 54 -26 137 35 170 41 22 73 18 114 -16z m2615 -1324 l2 -950 -25 -50 c-47 -92 -127 -128 -275 -123 -80 3 -85 4 -88 26 -2 13 3 31 11 40 46 55 109 241 127 377 17 131 8 258 -26 366 -8 26 -14 53 -14 61 0 25 -100 228 -112 228 -4 0 -8 5 -8 11 0 19 -109 147 -164 193 -55 46 -133 101 -181 127 -16 9 -30 23 -30 30 0 11 36 15 190 17 183 2 191 3 207 25 25 31 22 64 -7 92 l-24 25 -1414 0 -1414 0 -23 -25 c-18 -19 -21 -31 -16 -56 12 -63 -47 -59 855 -59 454 0 832 -4 839 -9 11 -6 7 -13 -16 -30 -17 -11 -34 -21 -39 -21 -36 0 -200 -147 -324 -289 l-36 -41 -632 0 -631 0 -11 -24 c-15 -31 -4 -72 21 -86 13 -7 208 -10 594 -10 658 0 608 8 575 -90 -10 -30 -18 -64 -18 -75 -1 -12 -6 -26 -12 -32 -6 -6 -11 -76 -11 -181 -2 -170 -2 -171 -25 -177 -13 -3 -252 -5 -531 -5 -279 0 -513 0 -520 0 -7 0 -20 -16 -29 -35 -16 -34 -16 -36 4 -63 l20 -27 554 -5 553 -5 12 -25 c7 -14 29 -61 49 -105 21 -44 44 -88 53 -97 12 -15 12 -20 2 -33 -11 -14 -94 -15 -739 -13 -805 3 -747 -2 -821 70 -72 71 -70 33 -70 1070 0 508 3 928 7 931 3 4 817 6 1807 5 l1801 -3 3 -950z m-1044 216 c94 -28 146 -47 186 -69 25 -13 56 -30 69 -37 28 -16 112 -87 153 -130 40 -41 138 -189 138 -207 0 -8 3 -18 7 -22 11 -11 34 -77 45 -131 14 -65 14 -297 1 -355 -32 -138 -142 -340 -185 -340 -16 0 -18 11 -18 119 l0 119 -46 4 c-25 2 -47 1 -50 -1 -2 -2 -4 -85 -4 -184 0 -198 3 -188 -67 -223 -63 -31 -64 -27 -63 198 l2 203 -44 6 c-24 4 -46 5 -50 2 -5 -2 -8 -111 -8 -242 l0 -238 -25 -11 c-34 -16 -60 -15 -74 1 -7 9 -12 97 -13 252 l-3 238 -40 0 -40 0 -3 -243 c-1 -162 -6 -248 -14 -257 -8 -10 -29 -12 -87 -7 -42 4 -80 10 -85 14 -4 5 -1 23 8 41 13 26 16 65 16 195 l0 162 -42 47 c-41 44 -46 46 -113 53 -84 9 -125 -3 -171 -46 -38 -37 -54 -84 -54 -164 0 -49 -3 -58 -17 -58 -18 1 -103 107 -103 129 0 6 -4 11 -8 11 -5 0 -16 19 -26 43 -10 23 -24 56 -31 72 -19 43 -32 99 -45 194 -15 111 5 274 45 366 7 17 21 48 30 70 49 110 168 245 283 319 39 25 74 46 79 46 5 0 33 11 61 25 29 14 67 25 84 25 18 0 40 5 48 10 19 12 233 13 274 1z m-405 -1148 c31 -34 36 -62 31 -182 -5 -109 -7 -122 -29 -145 -14 -14 -31 -26 -38 -26 -8 0 -46 20 -84 45 l-69 45 0 104 c0 121 14 157 69 179 41 17 95 8 120 -20z"/>
    <path d="M2510 2579 l0 -270 51 3 50 3 -1 259 c0 142 -3 263 -6 267 -3 5 -25 9 -50 9 l-44 0 0 -271z"/>
    <path d="M2727 2843 c-4 -3 -7 -125 -7 -270 l0 -263 50 0 50 0 0 270 0 270 -43 0 c-24 0 -47 -3 -50 -7z"/>
    <path d="M3057 2832 c-77 -52 -97 -105 -97 -263 0 -135 10 -167 74 -228 34 -33 36 -34 125 -33 50 0 96 5 103 11 88 75 88 74 88 256 0 162 -3 176 -50 226 -47 51 -186 68 -243 31z m180 -94 c22 -20 23 -29 23 -163 0 -123 -2 -144 -18 -158 -48 -44 -126 -43 -168 2 -23 25 -24 32 -24 157 0 129 0 130 28 156 15 14 34 28 42 31 27 11 94 -4 117 -25z"/>
    <path d="M3490 2848 c0 -2 -1 -123 -3 -271 l-2 -267 48 0 47 0 -2 268 -3 267 -42 3 c-24 2 -43 2 -43 0z"/>
  </g>
</svg>
