<svg id="DataView_-_selected" data-name="DataView - selected" xmlns="http://www.w3.org/2000/svg" viewBox="0 0 494.000000 539.000000">
  <g transform="translate(0.000000,539.000000) scale(0.100000,-0.100000)" fill="#e14748" stroke="none">
    <path d="M560 5375 c-7 -8 -29 -15 -49 -15 -36 0 -162 -47 -184 -69 -6 -6 -15 -11 -19 -11 -19 0 -129 -105 -169 -160 -30 -42 -70 -126 -93 -195 -15 -46 -16 -237 -16 -2225 0 -1988 1 -2179 16 -2225 73 -220 200 -350 424 -429 41 -14 233 -16 2012 -16 1191 0 1969 4 1973 9 3 5 19 12 35 16 69 15 179 83 245 150 70 71 106 130 156 255 21 52 21 4428 0 4480 -49 122 -89 188 -156 256 -68 68 -88 82 -165 119 -77 37 -102 45 -135 45 -18 0 -40 7 -49 15 -13 13 -239 15 -1914 15 -1676 0 -1901 -2 -1912 -15z m3585 -851 c101 -14 194 -87 240 -189 l25 -54 -1 -1183 c0 -1089 -1 -1186 -17 -1223 -61 -143 -175 -215 -342 -215 l-85 0 -72 -85 c-66 -77 -71 -86 -60 -107 32 -60 49 -76 95 -89 56 -16 109 -48 117 -71 4 -10 11 -18 16 -18 5 0 9 -5 9 -10 0 -6 18 -35 40 -65 22 -30 40 -57 40 -60 0 -5 105 -157 138 -200 4 -5 23 -35 42 -65 19 -30 38 -56 42 -58 5 -2 8 -8 8 -14 0 -5 11 -24 25 -42 22 -28 25 -43 25 -108 0 -63 -4 -83 -27 -123 -24 -43 -86 -115 -99 -115 -3 0 -20 -11 -37 -24 -74 -55 -211 -58 -283 -6 -18 13 -79 93 -109 142 -23 37 -232 347 -269 397 -37 52 -39 59 -40 130 -1 42 -3 78 -6 81 -13 13 -70 102 -70 109 0 17 -32 21 -60 6 -16 -8 -40 -15 -54 -15 -14 0 -27 -4 -30 -9 -3 -4 -31 -11 -63 -15 -32 -4 -76 -10 -98 -14 -48 -8 -159 -7 -200 2 -16 3 -58 9 -93 12 -34 4 -65 11 -68 15 -3 5 -16 9 -29 9 -13 0 -41 7 -62 16 -21 9 -47 20 -58 24 -51 19 -105 46 -105 53 0 4 -6 7 -13 7 -39 0 -249 178 -328 277 l-25 33 -735 2 -734 3 -56 27 c-62 30 -126 89 -150 139 -45 92 -44 62 -44 1274 0 1084 1 1153 18 1200 45 125 128 195 257 220 58 11 3309 10 3385 -1z"/>
    <path d="M721 4372 c-34 -23 -65 -55 -80 -82 -25 -42 -26 -54 -29 -212 l-4 -168 1841 0 1841 0 0 133 c0 198 -27 270 -125 332 l-54 35 -1668 0 -1668 -1 -54 -37z m159 -119 c40 -27 49 -45 50 -94 1 -126 -165 -151 -211 -33 -14 39 -3 78 34 113 36 36 87 41 127 14z m381 -12 c25 -25 29 -37 29 -85 0 -51 -3 -57 -33 -80 -99 -76 -223 29 -166 140 16 30 59 53 102 54 29 0 45 -7 68 -29z m358 3 c28 -23 31 -31 31 -84 0 -55 -2 -61 -33 -84 -79 -60 -177 -10 -177 90 0 28 8 44 34 70 44 44 99 47 145 8z"/>
    <path d="M953 3413 c-17 -11 -23 -25 -23 -54 0 -74 -57 -69 801 -69 l769 0 38 23 c37 23 86 46 132 65 14 5 43 17 65 25 22 9 49 18 60 20 11 3 -394 5 -900 5 -820 1 -922 -1 -942 -15z"/>
    <path d="M3370 3423 c53 -8 187 -65 262 -110 33 -20 51 -23 149 -23 103 0 112 2 130 23 31 38 21 80 -28 105 -15 8 -100 12 -280 11 -142 -1 -247 -4 -233 -6z"/>
    <path d="M2945 3337 c-67 -9 -161 -33 -187 -48 -10 -5 -25 -9 -33 -9 -8 0 -33 -11 -55 -25 -22 -14 -43 -25 -48 -25 -5 0 -34 -18 -66 -40 -31 -22 -59 -40 -62 -40 -21 0 -224 -223 -224 -245 0 -5 -10 -22 -22 -39 -29 -40 -53 -88 -73 -151 -9 -27 -20 -54 -24 -60 -5 -5 -11 -28 -15 -50 -3 -22 -11 -67 -16 -100 -5 -33 -10 -109 -9 -170 0 -60 0 -116 0 -122 -1 -10 -117 -13 -543 -13 -516 0 -544 -1 -567 -19 -18 -14 -25 -29 -25 -54 0 -71 -36 -67 594 -67 l568 0 16 -25 c9 -13 16 -31 16 -38 0 -13 64 -145 95 -195 58 -97 160 -202 270 -278 80 -56 109 -71 240 -123 41 -17 115 -31 221 -42 91 -10 125 -9 209 4 140 22 240 49 261 70 4 4 19 7 33 7 23 0 39 -18 111 -127 47 -71 88 -129 92 -131 12 -5 10 -50 -2 -57 -5 -3 -10 -22 -10 -42 0 -26 12 -52 50 -104 28 -38 50 -72 50 -75 0 -3 23 -37 50 -75 28 -38 50 -71 50 -74 0 -3 18 -30 40 -60 22 -30 40 -57 40 -60 0 -3 11 -18 25 -33 14 -15 25 -32 25 -37 0 -22 66 -75 93 -75 64 0 144 58 178 129 l21 46 -28 53 c-16 28 -32 52 -36 52 -4 0 -8 4 -8 10 0 5 -18 35 -40 67 -22 32 -45 65 -50 73 -5 8 -28 41 -50 73 -22 32 -40 60 -40 63 0 3 -11 17 -25 32 -14 15 -25 30 -25 34 0 5 -19 35 -42 68 l-43 59 -55 1 -55 1 -50 79 c-27 43 -53 79 -57 80 -5 0 -8 5 -8 11 0 6 -11 25 -25 43 -14 18 -25 40 -25 49 0 8 52 67 115 131 63 64 115 121 115 127 0 5 10 25 23 42 37 51 92 176 116 262 53 199 53 342 -1 550 -55 212 -220 441 -406 562 -68 44 -162 93 -180 93 -7 0 -20 4 -30 9 -77 42 -316 67 -457 48z m252 -188 c59 -13 153 -41 173 -50 8 -4 22 -10 30 -13 8 -3 24 -12 35 -18 11 -7 44 -28 74 -46 63 -39 188 -163 216 -216 11 -20 23 -36 27 -36 5 0 8 -8 8 -19 0 -10 7 -24 15 -31 8 -7 15 -20 15 -30 0 -9 3 -20 7 -24 13 -12 43 -100 43 -124 0 -13 5 -32 11 -43 14 -27 13 -269 -1 -317 -7 -20 -16 -53 -22 -72 -14 -48 -66 -168 -78 -180 -3 -3 -21 -29 -40 -57 -19 -29 -40 -53 -47 -53 -9 0 -13 35 -15 126 l-3 127 -55 0 -55 0 -5 -193 -5 -193 -48 -30 c-77 -47 -79 -43 -75 204 l3 207 -48 4 c-27 2 -51 1 -53 -1 -2 -2 -4 -113 -4 -246 0 -268 0 -269 -62 -263 l-33 3 -3 253 -2 252 -55 0 -55 0 0 -260 c0 -227 -2 -261 -16 -267 -25 -9 -165 18 -171 34 -3 8 2 22 11 32 13 15 16 45 16 186 0 152 -2 171 -21 201 -39 64 -73 79 -175 79 l-91 0 -47 -46 -48 -46 -6 -91 c-5 -89 -11 -103 -38 -84 -15 10 -87 112 -104 147 -8 17 -19 37 -25 45 -6 8 -24 56 -41 105 -27 85 -29 100 -29 250 1 161 3 175 47 285 29 72 89 180 123 220 33 39 94 99 133 130 46 38 194 120 216 120 8 0 27 7 42 15 16 8 43 15 59 16 17 1 41 5 55 9 37 12 163 11 217 -1z m-403 -1169 c47 -17 58 -59 54 -196 -3 -113 -5 -124 -27 -148 -32 -34 -50 -33 -113 6 -91 54 -88 49 -88 164 0 86 3 109 20 136 11 18 28 36 37 40 27 10 88 9 117 -2z"/>
    <path d="M2532 2593 l3 -278 45 4 c25 1 46 4 47 5 1 1 3 123 3 272 l1 269 -50 3 -51 3 2 -278z"/>
    <path d="M2747 2863 c-4 -3 -7 -127 -7 -274 l0 -267 48 -4 c26 -3 50 -3 55 -1 4 2 7 128 7 279 l0 274 -48 0 c-27 0 -52 -3 -55 -7z"/>
    <path d="M3083 2842 c-31 -19 -50 -42 -68 -80 -23 -48 -25 -64 -25 -180 1 -110 4 -133 23 -172 43 -87 138 -126 246 -100 40 9 59 22 91 57 l40 46 0 164 c0 174 -5 197 -52 239 -67 62 -180 73 -255 26z m186 -88 l31 -26 0 -142 c0 -135 -1 -144 -22 -164 -56 -52 -124 -48 -173 9 -24 29 -25 37 -25 152 0 122 0 123 31 160 27 33 35 37 79 37 38 0 55 -6 79 -26z"/>
    <path d="M3532 2593 l3 -278 40 2 c22 1 43 2 48 2 4 1 6 124 5 274 l-3 272 -48 3 -47 3 2 -278z"/>
    <path d="M952 2884 c-17 -12 -22 -25 -22 -58 0 -36 4 -45 25 -54 28 -13 1068 -18 1099 -6 9 4 29 32 43 63 15 31 29 59 31 64 2 4 -257 7 -575 7 -507 0 -581 -2 -601 -16z"/>
  </g>
</svg>
