<svg id="ImportData_-_selected" data-name="ImportData - selected" xmlns="http://www.w3.org/2000/svg" viewBox="0 0 478.000000 524.000000">
  <g transform="translate(0.000000,524.000000) scale(0.100000,-0.100000)" fill="#e14748" stroke="none">
    <path d="M540 5210 c-71 -7 -93 -14 -209 -69 -53 -24 -166 -135 -209 -204 -21 -34 -46 -89 -55 -122 -10 -33 -22 -74 -27 -91 -6 -19 -10 -798 -10 -2108 0 -2186 -1 -2113 40 -2211 62 -150 165 -266 285 -324 101 -48 105 -49 160 -54 27 -3 51 -10 53 -16 3 -8 510 -11 1822 -11 1593 0 1821 2 1846 15 16 8 43 15 60 15 29 0 75 15 134 43 35 17 152 102 170 124 60 72 103 144 136 228 19 49 19 93 19 2190 0 2084 0 2141 -19 2190 -11 28 -23 54 -28 59 -4 6 -8 16 -8 24 0 7 -25 47 -55 87 -54 73 -186 185 -218 185 -7 0 -17 3 -21 7 -4 4 -28 16 -54 27 -47 20 -64 21 -1897 22 -1017 1 -1879 -2 -1915 -6z m3722 -988 c62 -31 121 -93 153 -159 l25 -54 0 -981 0 -981 34 -71 c62 -132 86 -237 86 -383 0 -113 -21 -223 -60 -318 -4 -11 -11 -27 -14 -35 -3 -8 -10 -22 -15 -30 -5 -8 -17 -32 -27 -53 -11 -21 -29 -49 -41 -64 -13 -14 -23 -29 -23 -33 0 -3 -28 -35 -62 -71 -105 -109 -238 -195 -363 -233 -33 -11 -72 -23 -87 -29 -36 -12 -350 -12 -386 0 -15 6 -54 19 -87 29 -113 35 -248 117 -343 208 l-43 41 -1247 5 c-1211 5 -1248 6 -1282 24 -49 28 -124 105 -146 152 -18 38 -19 89 -19 1444 l0 1405 29 50 c34 57 47 71 96 107 86 61 -62 57 1945 55 l1830 -2 47 -23z"/>
    <path d="M591 4121 c-61 -25 -117 -74 -141 -123 -17 -35 -19 -64 -20 -220 -1 -99 0 -182 3 -184 5 -5 3869 -5 3874 0 8 7 5 289 -3 342 -8 57 -24 85 -75 134 -78 75 57 70 -1870 69 -1636 0 -1726 -1 -1768 -18z m135 -169 c30 -24 44 -55 44 -98 0 -30 -7 -44 -40 -76 -59 -55 -127 -48 -171 19 -30 45 -25 103 12 141 27 28 38 32 83 32 33 0 58 -6 72 -18z m393 -13 c55 -54 38 -149 -32 -184 -51 -25 -83 -19 -127 25 -43 43 -50 76 -28 127 21 46 48 62 105 63 44 0 56 -4 82 -31z m370 15 c61 -43 60 -141 -3 -189 -114 -87 -251 92 -139 182 34 28 107 31 142 7z"/>
    <path d="M630 2865 l0 -315 55 0 55 0 0 315 0 315 -55 0 -55 0 0 -315z"/>
    <path d="M871 3166 c-8 -9 -11 -100 -9 -312 l3 -299 50 0 50 0 3 290 c1 160 0 300 -3 313 -4 18 -12 22 -44 22 -21 0 -44 -6 -50 -14z"/>
    <path d="M1075 3168 c-3 -7 -4 -148 -3 -313 l3 -300 48 -3 47 -3 -2 313 -3 313 -43 3 c-28 2 -44 -1 -47 -10z"/>
    <path d="M1436 3168 c-40 -15 -74 -47 -94 -88 -25 -52 -25 -379 0 -431 32 -67 90 -99 178 -99 73 0 127 24 164 73 26 34 26 35 26 234 0 213 -4 236 -52 280 -45 41 -153 56 -222 31z m154 -97 l35 -29 0 -180 c0 -180 0 -180 -25 -201 -19 -15 -39 -20 -82 -21 -51 0 -59 3 -82 31 -26 30 -26 32 -26 199 l0 169 37 30 c50 41 96 42 143 2z"/>
    <path d="M1850 2866 l0 -316 50 0 50 0 -2 313 -3 312 -47 3 -48 3 0 -315z"/>
    <path d="M2077 3173 c-4 -3 -7 -145 -7 -315 l0 -309 48 3 c30 2 47 7 46 16 -1 6 -2 147 -2 312 l-2 300 -38 0 c-21 0 -42 -3 -45 -7z"/>
    <path d="M2436 3168 c-21 -6 -56 -28 -77 -49 l-39 -39 0 -215 c0 -207 1 -217 22 -246 38 -51 80 -69 164 -69 54 0 82 5 102 17 80 51 102 116 102 303 0 136 -5 163 -43 238 -25 50 -149 83 -231 60z m117 -84 c60 -29 67 -53 67 -225 0 -148 -1 -153 -26 -186 -24 -31 -28 -33 -89 -33 -57 0 -66 3 -84 26 -19 25 -21 40 -21 190 0 175 5 200 48 226 35 21 64 22 105 2z"/>
    <path d="M2837 3173 c-4 -3 -7 -145 -7 -315 l0 -308 50 0 50 0 0 315 0 315 -43 0 c-24 0 -47 -3 -50 -7z"/>
    <path d="M3065 3158 c-3 -13 -4 -153 -3 -313 l3 -290 48 -3 47 -3 -2 313 -3 313 -42 3 c-37 3 -43 0 -48 -20z"/>
    <path d="M3270 2866 l0 -316 55 0 55 0 -2 313 -3 312 -52 3 -53 3 0 -315z"/>
    <path d="M3641 3168 c-51 -14 -75 -34 -99 -79 -20 -38 -22 -54 -22 -227 1 -213 7 -237 75 -284 35 -24 49 -27 118 -28 94 0 139 23 176 89 17 30 27 273 16 376 -6 57 -11 70 -43 104 -52 54 -137 73 -221 49z m130 -91 c51 -34 61 -77 57 -239 -3 -120 -6 -140 -24 -165 -19 -25 -28 -28 -86 -31 -63 -3 -67 -1 -92 28 -26 31 -26 34 -26 182 0 170 9 204 63 231 44 22 69 21 108 -6z"/>
    <path d="M4040 2866 l0 -316 50 0 50 0 -2 313 -3 312 -47 3 -48 3 0 -315z"/>
    <path d="M3580 2350 c-14 -4 -44 -8 -67 -9 -23 -1 -45 -5 -48 -11 -3 -5 -14 -10 -23 -10 -9 0 -30 -7 -46 -15 -15 -8 -33 -15 -39 -15 -22 0 -176 -112 -228 -167 -100 -105 -169 -234 -199 -373 -21 -98 -3 -346 29 -407 5 -10 23 -49 41 -86 132 -282 453 -454 766 -412 115 16 140 24 253 79 102 49 229 164 291 262 22 35 40 66 40 68 0 3 11 29 24 58 39 89 49 138 53 268 5 134 -3 181 -55 310 -33 84 -76 150 -146 227 -54 59 -197 164 -241 176 -11 3 -45 14 -75 25 -102 36 -268 52 -330 32z m155 -156 c18 -8 155 -138 304 -289 l271 -273 0 -49 c0 -60 -35 -105 -91 -121 -67 -18 -96 0 -256 160 -81 82 -148 148 -150 148 -2 0 -3 -161 -3 -359 0 -388 -2 -401 -54 -450 -34 -32 -109 -35 -148 -6 -56 43 -59 64 -58 448 0 194 1 356 0 362 0 5 -64 -54 -142 -131 -79 -78 -154 -149 -168 -158 -48 -32 -128 -16 -167 34 -7 8 -13 41 -13 74 l0 59 277 278 c190 192 285 279 302 282 51 8 63 7 96 -9z"/>
    <path d="M642 1983 l3 -308 48 -3 47 -3 0 310 0 311 -50 0 -50 0 2 -307z"/>
    <path d="M960 2273 c-14 -9 -38 -33 -53 -53 l-27 -38 0 -206 c0 -131 4 -206 10 -206 6 0 10 -6 10 -13 0 -7 13 -27 30 -44 59 -61 215 -63 277 -4 51 48 53 57 53 270 0 184 -2 203 -21 235 -34 57 -77 76 -172 75 -55 -1 -90 -6 -107 -16z m199 -99 c19 -25 21 -40 21 -194 0 -185 -2 -190 -69 -224 -31 -17 -36 -17 -76 -2 -70 27 -77 52 -73 241 4 199 7 205 109 205 61 0 70 -3 88 -26z"/>
    <path d="M1410 1986 c0 -336 -4 -316 66 -316 l34 0 0 310 0 310 -50 0 -50 0 0 -304z"/>
    <path d="M1622 1983 l3 -308 29 -3 c15 -2 39 -1 52 2 l24 6 -2 303 -3 302 -53 3 -52 3 2 -308z"/>
    <path d="M1950 2272 c-76 -51 -84 -74 -89 -239 -5 -206 3 -263 42 -308 93 -107 301 -75 337 53 5 20 10 113 10 206 0 153 -2 174 -21 213 -33 68 -81 93 -176 92 -56 0 -85 -5 -103 -17z m194 -105 c25 -33 26 -38 26 -195 l0 -160 -30 -31 c-40 -39 -87 -48 -134 -26 -57 27 -66 57 -66 220 0 194 15 224 117 225 59 0 63 -2 87 -33z"/>
    <path d="M2400 1979 l0 -310 53 3 52 3 3 308 2 307 -55 0 -55 0 0 -311z"/>
    <path d="M2620 2285 c0 -3 0 -138 0 -300 0 -162 0 -300 0 -306 0 -6 17 -9 43 -7 l42 3 3 308 2 307 -45 0 c-25 0 -45 -2 -45 -5z"/>
    <path d="M2840 2104 c0 -104 4 -184 8 -179 5 6 15 26 22 45 7 19 18 42 24 50 45 60 57 99 54 182 l-3 83 -52 3 -53 3 0 -187z"/>
  </g>
</svg>
