<svg id="ImportData_-_unselected" data-name="ImportData - unselected" xmlns="http://www.w3.org/2000/svg" viewBox="0 0 490.000000 537.000000">
  <g transform="translate(0.000000,537.000000) scale(0.100000,-0.100000)" fill="#e14748" stroke="none">
    <path d="M526 5331 c-3 -5 -22 -12 -42 -16 -20 -3 -44 -10 -53 -14 -9 -5 -42 -21 -74 -37 -77 -37 -175 -128 -230 -212 -46 -71 -54 -88 -83 -167 -18 -48 -19 -130 -19 -2200 0 -1820 2 -2155 14 -2185 32 -81 43 -106 52 -120 5 -8 12 -23 15 -33 4 -9 10 -17 15 -17 5 0 9 -6 9 -13 0 -16 101 -124 150 -159 75 -55 126 -78 255 -112 54 -15 232 -16 1925 -13 1597 2 1872 5 1917 17 28 8 55 18 59 23 4 4 18 7 30 7 13 0 25 4 29 9 3 6 27 20 53 33 73 36 200 169 241 253 19 39 38 79 42 90 34 91 34 65 34 2220 -1 2145 -1 2150 -35 2230 -53 126 -112 211 -186 271 -27 21 -51 41 -54 44 -11 11 -85 49 -130 68 -107 44 -11 42 -2029 42 -1094 0 -1902 -4 -1905 -9z m3836 -88 c6 -7 18 -13 25 -13 20 0 143 -62 143 -72 0 -4 5 -8 10 -8 32 0 145 -134 187 -220 56 -115 53 43 53 -2238 0 -1924 -1 -2108 -16 -2155 -9 -29 -21 -56 -25 -61 -5 -6 -9 -16 -9 -23 0 -23 -64 -115 -116 -167 -52 -52 -144 -116 -167 -116 -7 0 -17 -4 -23 -9 -5 -4 -32 -16 -61 -25 -47 -15 -214 -16 -1923 -16 -1709 0 -1876 1 -1923 16 -29 9 -56 21 -61 25 -6 5 -17 9 -25 9 -8 0 -29 11 -47 25 -18 14 -37 25 -41 25 -15 0 -120 110 -139 146 -10 19 -22 34 -26 34 -5 0 -8 5 -8 12 0 6 -10 32 -22 56 -12 25 -26 63 -32 86 -15 61 -21 4150 -6 4231 27 143 107 271 226 363 23 18 47 32 53 32 6 0 11 5 11 10 0 6 6 10 14 10 7 0 27 7 42 15 16 8 36 15 45 15 8 0 19 4 25 9 5 6 32 12 59 14 28 2 886 3 1907 3 1471 -1 1860 -4 1870 -13z"/>
    <path d="M613 4320 c-95 -19 -192 -120 -212 -219 -8 -38 -11 -453 -11 -1363 0 -1331 1 -1358 36 -1427 18 -35 94 -111 110 -111 8 0 14 -4 14 -10 0 -5 11 -10 24 -10 14 0 28 -4 31 -10 4 -7 414 -10 1196 -10 l1190 0 80 -84 c71 -75 230 -196 256 -196 6 0 31 -11 57 -25 26 -14 56 -25 67 -25 11 0 28 -4 38 -9 9 -5 66 -17 126 -25 96 -13 121 -13 214 0 135 19 195 37 327 102 57 27 194 142 242 202 24 30 50 63 58 73 8 9 14 20 14 22 0 3 11 22 23 43 13 20 32 60 42 87 10 28 22 55 25 60 4 6 10 24 13 40 3 17 11 53 16 80 12 62 13 243 1 310 -5 28 -12 66 -15 85 -7 38 -9 43 -54 141 l-31 67 0 1001 0 1000 -24 53 c-25 58 -79 112 -141 143 -40 20 -62 20 -1855 21 -998 1 -1834 -2 -1857 -6z m213 -255 c29 -29 34 -41 34 -84 0 -42 -5 -56 -29 -83 -27 -30 -34 -33 -90 -33 -55 0 -62 2 -90 34 -25 28 -31 43 -31 82 0 42 5 53 35 84 32 31 42 35 87 35 45 0 55 -4 84 -35z m398 8 c15 -15 34 -42 41 -60 13 -30 12 -38 -4 -76 -42 -95 -160 -105 -218 -18 -34 50 -30 89 13 139 33 39 39 42 88 42 45 0 58 -4 80 -27z m402 11 c34 -23 54 -65 54 -112 0 -34 -6 -45 -40 -76 -51 -46 -111 -50 -158 -11 -62 52 -66 126 -11 183 27 27 38 32 81 32 28 0 59 -7 74 -16z m2775 -429 c12 -8 12 -1375 0 -1394 -7 -11 -22 -1 -67 43 -58 56 -221 166 -247 166 -7 0 -17 4 -22 8 -9 8 -47 20 -160 52 -48 14 -340 8 -400 -8 -184 -47 -369 -168 -472 -307 -31 -42 -43 -21 -43 78 l0 78 -52 -3 -53 -3 -3 -234 c-1 -129 -6 -239 -11 -245 -5 -6 -14 -63 -21 -126 -12 -117 -11 -128 26 -335 3 -16 17 -54 30 -84 14 -29 24 -63 22 -75 l-3 -21 -1139 -3 -1138 -2 -51 27 c-52 29 -107 92 -107 124 0 10 -4 21 -10 24 -12 7 -14 2213 -2 2231 4 7 16 13 26 15 32 6 3887 0 3897 -6z m-481 -1242 c80 -23 93 -28 183 -76 82 -44 202 -156 264 -247 34 -50 79 -145 89 -187 4 -16 12 -34 18 -42 7 -9 11 -74 10 -190 -1 -157 -3 -182 -23 -231 -13 -30 -25 -64 -29 -75 -3 -11 -16 -37 -29 -57 -12 -21 -23 -40 -23 -43 0 -17 -111 -143 -166 -189 -64 -53 -215 -136 -246 -136 -9 0 -20 -5 -23 -10 -3 -6 -22 -10 -41 -10 -20 0 -44 -5 -54 -10 -28 -15 -184 -15 -255 -1 -87 18 -164 41 -171 52 -3 5 -12 9 -20 9 -24 0 -151 86 -211 143 -158 149 -260 400 -239 589 4 35 10 87 13 116 3 29 9 55 14 58 5 3 9 12 9 21 0 16 21 68 47 116 8 15 21 39 28 54 23 45 104 136 175 198 97 84 270 159 390 169 82 7 234 -4 290 -21z"/>
    <path d="M708 3243 l-38 -4 0 -305 0 -304 50 0 50 0 -2 307 c-2 194 -7 307 -13 308 -5 1 -27 0 -47 -2z"/>
    <path d="M910 2951 c0 -166 -1 -304 -2 -308 -2 -5 21 -9 50 -11 l52 -3 0 305 0 306 -34 0 c-19 0 -41 3 -50 6 -14 6 -16 -25 -16 -295z"/>
    <path d="M1110 2938 l0 -308 55 0 55 0 -2 307 -3 307 -52 0 -53 1 0 -307z"/>
    <path d="M1933 3243 l-43 -4 0 -305 0 -305 53 3 c28 2 51 6 50 11 -2 4 -3 142 -3 307 0 165 -3 299 -7 298 -5 -1 -27 -3 -50 -5z"/>
    <path d="M2110 2951 c0 -166 -1 -304 -2 -308 -2 -5 21 -9 50 -11 l52 -3 0 305 0 306 -34 0 c-19 0 -41 3 -50 6 -14 6 -16 -25 -16 -295z"/>
    <path d="M2887 3244 c-4 -4 -7 -144 -7 -311 l0 -303 50 0 50 0 0 305 0 305 -29 0 c-16 0 -36 2 -43 5 -8 3 -17 2 -21 -1z"/>
    <path d="M3110 2951 c0 -166 -1 -304 -2 -308 -2 -5 21 -9 50 -11 l52 -3 0 305 0 306 -34 0 c-19 0 -41 3 -50 6 -14 6 -16 -25 -16 -295z"/>
    <path d="M3358 3243 l-38 -4 0 -305 0 -304 50 0 50 0 -2 307 c-2 194 -7 307 -13 308 -5 1 -27 0 -47 -2z"/>
    <path d="M4133 3243 l-43 -4 0 -305 0 -305 53 3 c28 2 51 6 50 11 -2 4 -3 142 -3 307 0 165 -3 299 -7 298 -5 -1 -27 -3 -50 -5z"/>
    <path d="M1418 3200 l-43 -41 0 -218 0 -218 30 -34 c43 -50 68 -59 167 -59 l88 0 38 38 c51 51 62 98 62 266 0 261 -30 306 -204 306 l-94 0 -44 -40z m196 -44 c56 -23 66 -58 66 -221 0 -131 -2 -145 -23 -176 -44 -65 -134 -70 -184 -10 -22 25 -23 35 -23 192 l0 165 28 26 c41 39 83 46 136 24z"/>
    <path d="M2428 3215 c-63 -41 -68 -64 -68 -280 0 -213 5 -235 64 -280 30 -23 42 -25 126 -25 84 0 96 2 126 25 59 45 64 67 64 280 0 216 -5 237 -68 280 -32 22 -47 25 -122 24 -72 0 -90 -4 -122 -24z m171 -60 c55 -16 60 -35 60 -220 0 -153 -2 -172 -19 -193 -40 -49 -132 -50 -176 -3 -23 25 -24 30 -24 189 0 188 8 214 69 230 36 10 46 9 90 -3z"/>
    <path d="M3624 3197 l-48 -44 -4 -156 c-3 -86 -1 -185 2 -220 6 -56 12 -68 48 -105 l40 -42 95 0 c72 0 100 4 121 17 68 44 80 86 81 276 1 195 -8 236 -62 282 -40 34 -42 35 -133 35 l-92 0 -48 -43z m189 -42 c58 -24 67 -55 67 -227 0 -134 -2 -153 -20 -178 -44 -62 -157 -61 -193 1 -14 26 -17 57 -17 187 0 149 1 158 23 182 42 48 84 59 140 35z"/>
    <path d="M687 2363 c-4 -3 -7 -145 -7 -315 l0 -309 48 3 47 3 5 307 c4 251 3 309 -8 313 -20 7 -77 6 -85 -2z"/>
    <path d="M1025 2353 c-54 -22 -93 -69 -101 -119 -3 -22 -4 -122 -2 -221 l3 -182 34 -35 c32 -33 107 -66 151 -66 27 0 110 27 132 43 9 7 27 33 40 57 21 42 23 56 23 210 0 91 -3 181 -8 201 -21 101 -159 158 -272 112z m162 -95 c39 -43 43 -64 43 -206 0 -189 -22 -232 -121 -232 -40 0 -53 5 -78 31 l-31 31 0 165 c0 163 1 167 26 200 23 31 29 33 83 33 47 0 61 -4 78 -22z"/>
    <path d="M1455 2358 c-3 -7 -4 -148 -3 -313 l3 -300 45 0 45 0 0 310 0 310 -43 3 c-28 2 -44 -1 -47 -10z"/>
    <path d="M1675 2364 c-7 -2 -8 -111 -5 -311 l5 -308 48 -3 47 -3 -2 313 -3 313 -40 2 c-22 1 -44 0 -50 -3z"/>
    <path d="M2020 2351 c-24 -10 -59 -35 -77 -56 l-33 -38 0 -204 c0 -215 2 -227 50 -271 78 -72 215 -69 280 5 48 55 50 63 50 261 0 201 -5 226 -52 268 -30 28 -101 54 -141 53 -17 0 -52 -8 -77 -18z m159 -102 l31 -31 0 -168 c0 -167 0 -169 -26 -199 -23 -28 -31 -31 -83 -31 -50 0 -61 4 -84 28 l-27 28 0 173 0 173 31 29 c25 24 40 29 79 29 41 0 53 -5 79 -31z"/>
    <path d="M2455 2358 c-3 -7 -4 -148 -3 -313 l3 -300 45 0 45 0 0 310 0 310 -43 3 c-28 2 -44 -1 -47 -10z"/>
    <path d="M2658 2363 c-2 -5 -2 -146 0 -315 l3 -308 43 0 c31 0 46 5 50 16 3 9 6 148 6 309 0 324 4 305 -65 305 -19 0 -35 -3 -37 -7z"/>
    <path d="M3694 2250 c-25 -11 -134 -114 -303 -283 l-263 -264 -1 -53 c-1 -46 3 -56 28 -77 24 -21 36 -24 77 -21 48 5 52 8 208 164 88 87 166 160 175 162 13 3 15 -43 15 -395 l0 -399 28 -27 c36 -35 111 -38 145 -6 22 20 22 22 25 420 2 339 5 401 17 406 10 3 70 -50 174 -152 87 -87 165 -161 172 -166 8 -5 33 -9 56 -9 36 0 46 5 67 33 18 23 26 47 26 73 0 37 -10 48 -267 307 -148 148 -284 277 -304 287 -34 18 -36 18 -75 0z"/>
  </g>
</svg>
