<svg id="Manage_Project_Details_-_Unselected" data-name="Manage Project Details - Unselected" xmlns="http://www.w3.org/2000/svg" viewBox="0 0 46.77 51.26">
  <defs>
    <style>
      .cls-1, .cls-2 {
        fill: #f0f1f3;
        stroke: #e14748;
        stroke-miterlimit: 10;
      }

      .cls-2 {
        stroke-width: 2px;
      }
    </style>
  </defs>
  <rect id="Icon_Button" data-name="Icon Button" class="cls-1" x="0.5" y="0.5" width="45.77" height="50.26" rx="5.88"/>
  <g id="Pencil_Shapes" data-name="Pencil Shapes">
    <path class="cls-2" d="M85.59,128.05l1.63-7.13,16.84-16.84a.75.75,0,0,1,1.07,0l4.78,5a.75.75,0,0,1,0,1.05L93,127Z" transform="translate(-75.97 -88.43)"/>
    <path class="cls-2" d="M106.64,102.09l5.55,5.61a.69.69,0,0,0,1,0l2.66-2.63a.68.68,0,0,0,0-1l-5.47-5.53a.67.67,0,0,0-.95,0l-2.74,2.54A.7.7,0,0,0,106.64,102.09Z" transform="translate(-75.97 -88.43)"/>
  </g>
</svg>
