<svg id="Satellite_-_Selected" data-name="Satellite - Selected" xmlns="http://www.w3.org/2000/svg" viewBox="0 0 45.77 50.26">
  <defs>
    <style>
      .cls-1 {
        fill: #e14748;
      }

      .cls-2 {
        fill: none;
        stroke: #fff;
        stroke-linecap: round;
      }

      .cls-2, .cls-3 {
        stroke-miterlimit: 10;
      }

      .cls-3, .cls-4 {
        fill: #fff;
      }

      .cls-3 {
        stroke: #e14848;
      }
    </style>
  </defs>
  <rect id="Icon_Button" data-name="Icon Button" class="cls-1" width="45.77" height="50.26" rx="5.88"/>
  <path id="RF_-_1" data-name="RF - 1" class="cls-2" d="M39.49,58.52a6,6,0,0,1-6.73-6.34" transform="translate(-22.19 -23.44)"/>
  <path id="Dish" class="cls-3" d="M40.88,50.9l-4.75-4.69a6.19,6.19,0,0,1,4.5-1.83A6.94,6.94,0,0,1,47.4,51a6.25,6.25,0,0,1-1.7,4.57Z" transform="translate(-22.19 -23.44)"/>
  <circle id="Dish_Middle_-_circle" data-name="Dish Middle - circle" class="cls-4" cx="16.98" cy="28.79" r="0.92"/>
  <polygon id="Dish_Middle" data-name="Dish Middle" class="cls-4" points="16.89 28.98 21.86 27.63 18.2 24 16.89 28.98"/>
  <rect id="Middle_-_Body" data-name="Middle - Body" class="cls-3" x="45.57" y="33.11" width="10.08" height="16.49" rx="1.78" transform="translate(23.1 -47.22) rotate(46.07)"/>
  <rect id="Wing_2_-_right" data-name="Wing 2 - right" class="cls-3" x="49.71" y="48.77" width="16.88" height="7.95" rx="1.78" transform="translate(32.14 -49.11) rotate(45)"/>
  <path id="RF_-_2" data-name="RF - 2" class="cls-2" d="M38.45,62.79a8.86,8.86,0,0,1-10-9.42" transform="translate(-22.19 -23.44)"/>
  <rect id="Wing_1_-_left" data-name="Wing 1 - left" class="cls-3" x="30.56" y="29.62" width="16.88" height="7.95" rx="1.78" transform="translate(12.99 -41.18) rotate(45)"/>
</svg>
