<svg id="Tool_-_selected" data-name="Tool - selected" xmlns="http://www.w3.org/2000/svg" viewBox="0 0 464.000000 510.000000">
  <g transform="translate(0.000000,510.000000) scale(0.100000,-0.100000)" fill="#e14748" stroke="none">
    <path d="M470 5060 c-8 -5 -23 -10 -33 -10 -10 0 -54 -18 -98 -39 -86 -43 -192 -135 -225 -196 -10 -19 -22 -35 -26 -35 -5 0 -8 -8 -8 -18 0 -10 -4 -22 -8 -27 -5 -6 -17 -32 -28 -60 -18 -49 -19 -105 -19 -2125 l0 -2075 29 -70 c35 -82 67 -135 116 -189 39 -44 120 -105 165 -125 17 -7 38 -17 47 -22 66 -33 82 -34 1933 -33 1007 0 1844 3 1860 8 17 4 67 26 113 48 143 70 258 208 304 368 18 64 19 4114 0 4177 -46 161 -156 298 -292 368 -137 70 15 65 -1998 65 -1156 0 -1822 -4 -1832 -10z m1451 -884 c24 -8 69 -21 99 -30 30 -9 78 -29 105 -45 62 -34 69 -64 29 -117 -37 -48 -64 -57 -117 -39 -70 24 -198 19 -297 -12 -97 -30 -162 -69 -237 -139 -89 -84 -114 -48 373 -542 382 -388 425 -434 413 -450 -8 -9 -34 -37 -59 -62 -25 -25 -86 -89 -134 -142 -49 -54 -96 -98 -105 -98 -9 0 -155 141 -326 314 -289 292 -314 315 -364 331 -51 17 -58 17 -106 1 -88 -27 -159 -130 -140 -203 18 -71 16 -75 -105 -199 -110 -112 -117 -117 -157 -118 -42 -1 -43 0 -235 198 -198 203 -217 227 -217 261 0 31 17 55 127 171 l103 109 92 0 c86 0 95 2 135 30 74 53 114 176 80 250 -11 24 -5 32 153 188 146 144 285 257 318 257 6 0 29 11 51 25 22 14 48 25 59 25 11 0 23 5 26 10 3 6 18 10 33 11 15 0 43 7 62 14 49 19 282 20 341 1z m1760 -76 c10 -6 19 -15 19 -21 0 -5 -69 -78 -153 -162 -164 -164 -177 -184 -177 -282 0 -111 61 -216 160 -277 34 -20 111 -29 187 -22 63 7 65 8 161 93 53 47 128 116 167 153 85 82 110 88 120 26 33 -214 -3 -358 -131 -519 -51 -64 -154 -153 -204 -176 -55 -26 -96 -42 -125 -49 -54 -13 -266 -16 -295 -4 -27 11 -35 4 -446 -412 -1328 -1342 -1486 -1501 -1527 -1531 -56 -41 -130 -60 -210 -55 -40 3 -81 9 -92 15 -11 6 -36 18 -55 28 -54 28 -107 83 -142 150 -28 53 -31 70 -32 145 0 63 5 98 19 132 11 27 23 48 28 48 4 0 7 6 7 13 0 6 151 161 335 342 184 182 614 607 956 945 342 338 626 618 633 622 7 5 11 56 11 157 0 107 4 154 13 162 6 7 12 25 12 40 0 15 5 31 10 34 6 3 10 13 10 22 0 21 80 139 127 187 37 38 137 116 148 116 3 0 22 10 43 23 20 13 57 29 82 36 25 7 54 17 65 21 29 12 253 12 276 0z m-295 -2335 c270 -270 484 -492 484 -502 0 -10 7 -27 15 -37 10 -13 15 -44 15 -91 0 -81 -27 -147 -82 -203 -35 -37 -120 -80 -173 -89 -38 -6 -112 10 -160 36 -43 22 -986 963 -983 980 4 20 370 389 386 390 8 1 232 -217 498 -484z"/>
    <path d="M1195 1376 c-87 -33 -125 -86 -125 -171 0 -73 32 -123 102 -159 59 -31 82 -32 140 -7 75 32 108 85 108 172 0 52 -4 68 -27 98 -32 43 -45 52 -98 68 -47 15 -60 15 -100 -1z"/>
  </g>
</svg>
