<svg id="Tool_-_unselected" data-name="Tool - unselected" xmlns="http://www.w3.org/2000/svg" viewBox="0 0 482.000000 528.000000">
  <g transform="translate(0.000000,528.000000) scale(0.100000,-0.100000)" fill="#e14748" stroke="none">
    <path d="M600 5271 c0 -5 -26 -13 -57 -16 -32 -4 -74 -13 -93 -21 -19 -9 -46 -20 -60 -26 -149 -64 -261 -179 -325 -333 -9 -22 -20 -49 -25 -60 -5 -11 -11 -47 -14 -80 -3 -33 -10 -61 -16 -63 -14 -5 -14 -4044 0 -4058 6 -6 13 -35 16 -65 16 -153 144 -349 279 -426 52 -30 124 -64 170 -80 47 -17 149 -18 1947 -18 1504 0 1900 3 1910 12 6 7 19 13 28 13 8 0 28 7 44 15 15 8 32 15 38 15 16 0 117 69 164 112 42 39 134 160 134 177 0 8 23 60 41 93 5 10 9 32 9 50 0 18 7 46 15 62 13 25 15 278 15 2075 -1 1783 -3 2048 -15 2065 -8 11 -15 37 -15 58 0 21 -4 46 -10 56 -5 9 -17 35 -26 57 -42 96 -123 198 -204 257 -46 33 -127 78 -143 78 -7 0 -23 6 -38 13 -14 8 -50 17 -79 20 -30 4 -56 11 -58 17 -5 13 -3632 14 -3632 1z m3702 -102 c26 -8 50 -18 54 -22 4 -4 13 -7 21 -7 25 0 118 -63 176 -119 52 -50 127 -158 127 -182 0 -5 4 -17 9 -27 37 -75 36 -14 39 -2137 1 -1280 -1 -2065 -7 -2090 -22 -93 -29 -115 -52 -161 -13 -27 -27 -50 -31 -52 -5 -2 -8 -8 -8 -14 0 -36 -142 -160 -230 -200 -70 -32 -86 -37 -165 -48 -89 -13 -3617 -9 -3690 4 -45 8 -55 12 -140 52 -88 42 -201 158 -247 254 -36 75 -40 87 -59 188 -6 32 -8 806 -6 2075 3 1848 4 2027 19 2075 34 105 81 185 153 258 80 80 159 124 276 154 71 18 143 18 1894 16 1576 -2 1826 -4 1867 -17z"/>
    <path d="M1645 4325 c-22 -8 -50 -15 -62 -15 -12 0 -25 -4 -28 -10 -3 -5 -14 -10 -24 -10 -26 0 -168 -75 -230 -122 -30 -23 -112 -97 -184 -167 -182 -176 -169 -161 -162 -196 15 -63 10 -120 -15 -170 -27 -56 -38 -69 -93 -110 -35 -26 -44 -28 -127 -27 l-89 1 -53 -54 c-178 -177 -196 -205 -163 -250 45 -59 390 -404 411 -409 39 -10 75 16 181 130 71 77 97 112 95 127 -14 95 -13 105 8 151 30 64 87 110 155 126 42 10 61 11 80 2 14 -7 35 -12 45 -12 11 0 20 -4 20 -10 0 -5 6 -10 14 -10 7 0 155 -144 328 -319 305 -309 316 -319 334 -302 40 38 269 283 272 291 2 5 -189 203 -425 440 -235 237 -431 440 -435 451 -5 12 -5 32 -2 45 9 35 132 144 200 178 33 15 66 32 75 36 9 5 46 16 83 25 66 17 158 16 289 -1 44 -6 50 -4 72 22 14 16 25 40 25 54 -1 21 -11 30 -63 54 -129 60 -170 68 -342 72 -114 3 -159 0 -190 -11z"/>
    <path d="M3575 4210 c-150 -23 -262 -84 -385 -210 -57 -58 -92 -113 -130 -205 -31 -73 -44 -243 -26 -325 l8 -36 -419 -414 c-230 -229 -519 -514 -643 -635 -674 -659 -900 -884 -930 -925 -43 -60 -63 -132 -58 -213 3 -40 9 -81 15 -92 6 -11 17 -33 24 -48 16 -34 88 -108 121 -124 88 -42 101 -45 182 -41 142 7 118 -13 725 597 299 300 745 751 992 1001 l449 454 33 -12 c42 -15 221 -16 284 -1 103 25 193 79 288 174 100 99 149 183 180 307 20 77 17 227 -4 267 l-14 25 -21 -25 c-12 -13 -64 -62 -116 -108 -52 -46 -108 -98 -125 -114 -74 -73 -91 -81 -190 -85 -86 -4 -98 -2 -149 23 -111 54 -183 158 -188 270 -1 33 -1 82 0 109 l2 48 167 167 166 166 -49 7 c-62 8 -125 7 -189 -2z m-2160 -2762 c70 -36 107 -98 108 -179 0 -94 -74 -182 -164 -194 -85 -12 -127 1 -181 57 -26 27 -48 58 -48 69 0 11 -5 30 -11 41 -22 41 25 151 79 189 75 51 140 57 217 17z"/>
    <path d="M2845 2099 l-189 -190 479 -480 c515 -515 526 -525 633 -532 60 -5 142 20 188 57 19 15 48 50 64 79 26 46 30 62 30 132 0 70 -4 86 -29 131 -20 34 -186 207 -502 522 -260 260 -475 472 -478 471 -3 0 -91 -86 -196 -190z"/>
  </g>
</svg>
