<svg id="Users_Guide_-_Unselected" data-name="Users Guide - Unselected" xmlns="http://www.w3.org/2000/svg" viewBox="0 0 46.77 51.26">
  <defs>
    <style>
      .cls-1, .cls-2 {
        fill: #f0f1f3;
      }

      .cls-1, .cls-2, .cls-4 {
        stroke: #e14748;
        stroke-miterlimit: 10;
      }

      .cls-2, .cls-4 {
        stroke-width: 2px;
      }

      .cls-3 {
        fill: #e14748;
      }

      .cls-4 {
        fill: none;
        stroke-linecap: round;
      }
    </style>
  </defs>
  <rect id="Icon_Button" data-name="Icon Button" class="cls-1" x="0.5" y="0.5" width="45.77" height="50.26" rx="5.88"/>
  <path id="Paper" class="cls-2" d="M153.26,97.83h15.79a1.29,1.29,0,0,1,.93.39l7.55,7.54a1.3,1.3,0,0,1,.38.93V128.6a.65.65,0,0,1-.64.65h-24a.65.65,0,0,1-.64-.65l0-30.12A.65.65,0,0,1,153.26,97.83Z" transform="translate(-141.14 -88.84)"/>
  <path id="Paper_fold" data-name="Paper fold" class="cls-3" d="M167.7,100.86v7a.52.52,0,0,0,.53.53H175a.53.53,0,0,0,.53-.53v-.57a.52.52,0,0,0-.15-.38L169,100.49a.51.51,0,0,0-.37-.15h-.39A.53.53,0,0,0,167.7,100.86Z" transform="translate(-141.14 -88.84)"/>
  <line id="Writing_1" data-name="Writing 1" class="cls-4" x1="15.39" y1="31.53" x2="31.52" y2="31.53"/>
  <line id="Writing_1-2" data-name="Writing 1" class="cls-4" x1="15.39" y1="24.31" x2="31.52" y2="24.31"/>
</svg>
